<?xml version="1.0" encoding="UTF-8"?>
<svg width="24" height="24" viewBox="0 0 24 24" fill="none" xmlns="http://www.w3.org/2000/svg">
    <!-- Sun -->
    <path class="sun" d="M12 17C14.7614 17 17 14.7614 17 12C17 9.23858 14.7614 7 12 7C9.23858 7 7 9.23858 7 12C7 14.7614 9.23858 17 12 17Z" fill="currentColor"/>
    <path class="sun-rays" d="M12 1V3M12 21V23M4.22 4.22L5.64 5.64M18.36 18.36L19.78 19.78M18.36 5.64L19.78 4.22M4.22 19.78L5.64 18.36M1 12H3M21 12H23" stroke="currentColor" stroke-width="2" stroke-linecap="round"/>
    <!-- Moon -->
    <path class="moon" d="M21 12.79A9 9 0 1 1 11.21 3 7 7 0 0 0 21 12.79z" fill="currentColor" style="display: none;"/>
</svg> 